<svg width="39" height="39" viewBox="0 0 39 39" fill="none" xmlns="http://www.w3.org/2000/svg">
<path d="M19.0401 2.04004C19.3106 2.04004 19.57 2.1475 19.7613 2.33879C19.9526 2.53008 20.0601 2.78952 20.0601 3.06004V4.08004H26.1801C27.172 4.08004 28.1233 4.47407 28.8246 5.17546C29.526 5.87685 29.9201 6.82813 29.9201 7.82004V15.3C29.9201 16.2919 29.526 17.2432 28.8246 17.9446C28.1233 18.646 27.172 19.04 26.1801 19.04H11.9001C11.4089 19.04 10.9226 18.9433 10.4688 18.7553C10.0151 18.5674 9.60278 18.2919 9.25548 17.9446C8.5541 17.2432 8.16006 16.2919 8.16006 15.3V7.82004C8.16006 6.82813 8.5541 5.87685 9.25548 5.17546C9.95687 4.47407 10.9082 4.08004 11.9001 4.08004H18.0201V3.06004C18.0201 2.78952 18.1275 2.53008 18.3188 2.33879C18.5101 2.1475 18.7695 2.04004 19.0401 2.04004ZM9.18006 21.76C8.18815 21.76 7.23687 22.1541 6.53548 22.8555C5.8341 23.5568 5.44006 24.5081 5.44006 25.5V26.52C5.44006 29.2088 6.74702 31.4732 9.13518 33.0208C11.4839 34.54 14.8472 35.36 19.0401 35.36C23.2329 35.36 26.5962 34.5413 28.9449 33.0208C31.3331 31.4718 32.6401 29.2074 32.6401 26.52V25.5C32.6401 24.5081 32.246 23.5568 31.5446 22.8555C30.8433 22.1541 29.892 21.76 28.9001 21.76H9.18006ZM14.9601 13.6C15.5011 13.6 16.02 13.3851 16.4026 13.0025C16.7851 12.62 17.0001 12.1011 17.0001 11.56C17.0001 11.019 16.7851 10.5001 16.4026 10.1175C16.02 9.73497 15.5011 9.52004 14.9601 9.52004C14.419 9.52004 13.9001 9.73497 13.5176 10.1175C13.135 10.5001 12.9201 11.019 12.9201 11.56C12.9201 12.1011 13.135 12.62 13.5176 13.0025C13.9001 13.3851 14.419 13.6 14.9601 13.6ZM25.1601 11.56C25.1601 11.019 24.9451 10.5001 24.5626 10.1175C24.18 9.73497 23.6611 9.52004 23.1201 9.52004C22.579 9.52004 22.0601 9.73497 21.6776 10.1175C21.295 10.5001 21.0801 11.019 21.0801 11.56C21.0801 12.1011 21.295 12.62 21.6776 13.0025C22.0601 13.3851 22.579 13.6 23.1201 13.6C23.6611 13.6 24.18 13.3851 24.5626 13.0025C24.9451 12.62 25.1601 12.1011 25.1601 11.56Z" fill="white"/>
</svg>
