<svg width="23" height="26" viewBox="0 0 23 26" fill="none" xmlns="http://www.w3.org/2000/svg">
<path d="M6.61667 0.75H2.88333C2.31754 0.75 1.77492 0.974761 1.37484 1.37484C0.974762 1.77492 0.75 2.31754 0.75 2.88333V9.28333C0.75 9.56349 0.80518 9.8409 0.91239 10.0997C1.0196 10.3586 1.17674 10.5937 1.37484 10.7918C1.57294 10.9899 1.80811 11.1471 2.06694 11.2543C2.32577 11.3615 2.60318 11.4167 2.88333 11.4167H6.61667C6.89682 11.4167 7.17423 11.3615 7.43306 11.2543C7.69189 11.1471 7.92706 10.9899 8.12516 10.7918C8.32326 10.5937 8.4804 10.3586 8.58761 10.0997C8.69482 9.8409 8.75 9.56349 8.75 9.28333V2.88333C8.75 2.31754 8.52524 1.77492 8.12516 1.37484C7.72508 0.974761 7.18246 0.75 6.61667 0.75ZM6.61667 16.75H2.88333C2.31754 16.75 1.77492 16.9748 1.37484 17.3748C0.974762 17.7749 0.75 18.3175 0.75 18.8833V22.6167C0.75 23.1825 0.974762 23.7251 1.37484 24.1252C1.77492 24.5252 2.31754 24.75 2.88333 24.75H6.61667C7.18246 24.75 7.72508 24.5252 8.12516 24.1252C8.52524 23.7251 8.75 23.1825 8.75 22.6167V18.8833C8.75 18.3175 8.52524 17.7749 8.12516 17.3748C7.72508 16.9748 7.18246 16.75 6.61667 16.75ZM19.95 0.75H16.2167C15.6509 0.75 15.1082 0.974761 14.7082 1.37484C14.3081 1.77492 14.0833 2.31754 14.0833 2.88333V6.61667C14.0833 7.18246 14.3081 7.72508 14.7082 8.12516C15.1082 8.52524 15.6509 8.75 16.2167 8.75H19.95C20.5158 8.75 21.0584 8.52524 21.4585 8.12516C21.8586 7.72508 22.0833 7.18246 22.0833 6.61667V2.88333C22.0833 2.31754 21.8586 1.77492 21.4585 1.37484C21.0584 0.974761 20.5158 0.75 19.95 0.75ZM19.95 14.0833H16.2167C15.6509 14.0833 15.1082 14.3081 14.7082 14.7082C14.3081 15.1082 14.0833 15.6509 14.0833 16.2167V22.6167C14.0833 23.1825 14.3081 23.7251 14.7082 24.1252C15.1082 24.5252 15.6509 24.75 16.2167 24.75H19.95C20.5158 24.75 21.0584 24.5252 21.4585 24.1252C21.8586 23.7251 22.0833 23.1825 22.0833 22.6167V16.2167C22.0833 15.6509 21.8586 15.1082 21.4585 14.7082C21.0584 14.3081 20.5158 14.0833 19.95 14.0833Z" stroke="#737791" stroke-width="1.5" stroke-miterlimit="10" stroke-linejoin="round"/>
</svg>
