<svg width="253" height="67" viewBox="0 0 253 67" fill="none" xmlns="http://www.w3.org/2000/svg">
<g filter="url(#filter0_i_195_199)">
<path d="M107.099 47.4661L105.825 35.9206C105.759 35.2438 105.686 34.3679 105.606 33.293C105.54 32.4967 105.467 31.5943 105.388 30.5858C105.029 32.6958 104.591 34.5869 104.074 36.259L100.729 47.4661H94.4989L91.1547 36.259C90.6371 34.5869 90.1992 32.6958 89.8409 30.5858C89.8011 31.1697 89.7546 31.7403 89.7016 32.2977C89.6087 33.6247 89.5091 34.8324 89.403 35.9206L88.129 47.4661H77.8575L82.834 18.3236H93.6429L95.7132 25.5296C95.7795 25.742 95.8459 25.9676 95.9122 26.2064C96.2042 27.1487 96.5094 28.27 96.8279 29.5706C97.1597 30.8578 97.4251 32.3508 97.6242 34.0494H97.8033C98.0422 32.3109 98.3275 30.7782 98.6593 29.4511C99.0043 28.1108 99.3228 26.9629 99.6148 26.0074C99.6811 25.795 99.7408 25.596 99.7939 25.4102L101.964 18.3236H112.753L117.371 47.4661H107.099ZM118.924 47.4661V18.3236H129.195L138.252 33.5717C138.12 32.656 138.033 31.8133 137.994 31.0436C137.954 30.2606 137.934 29.5506 137.934 28.9137V18.3236H148.026V47.4661H137.675L128.717 32.3375C128.85 33.2797 128.936 34.1357 128.976 34.9054C129.016 35.6751 129.036 36.3585 129.036 36.9557V47.4661H118.924ZM149.977 47.4661V18.3236H160.627V47.4661H149.977ZM188.993 47.4661L187.719 35.9206C187.652 35.2438 187.579 34.3679 187.5 33.293C187.433 32.4967 187.36 31.5943 187.281 30.5858C186.923 32.6958 186.485 34.5869 185.967 36.259L182.623 47.4661H176.392L173.048 36.259C172.531 34.5869 172.093 32.6958 171.734 30.5858C171.694 31.1697 171.648 31.7403 171.595 32.2977C171.502 33.6247 171.402 34.8324 171.296 35.9206L170.022 47.4661H159.751L164.727 18.3236H175.536L177.607 25.5296C177.673 25.742 177.739 25.9676 177.806 26.2064C178.098 27.1487 178.403 28.27 178.721 29.5706C179.053 30.8578 179.318 32.3508 179.518 34.0494H179.697C179.936 32.3109 180.221 30.7782 180.553 29.4511C180.898 28.1108 181.216 26.9629 181.508 26.0074C181.574 25.795 181.634 25.596 181.687 25.4102L183.857 18.3236H194.646L199.264 47.4661H188.993ZM196.955 47.4661L207.346 18.3236H219.011L229.203 47.4661H217.936L217.001 43.8034H209.098L208.202 47.4661H196.955ZM210.85 36.8761H215.209L214.313 33.5717C214.273 33.4124 214.234 33.2532 214.194 33.0939C213.981 32.3508 213.769 31.4948 213.557 30.526C213.358 29.544 213.218 28.4226 213.139 27.1619H212.92C212.84 28.4226 212.694 29.544 212.482 30.526C212.283 31.4948 212.077 32.3508 211.865 33.0939C211.825 33.2532 211.785 33.4124 211.745 33.5717L210.85 36.8761ZM237.663 26.4254V31.2825H239.295C240.304 31.2825 241.067 31.0701 241.584 30.6455C242.115 30.2208 242.381 29.6303 242.381 28.8738C242.381 28.1174 242.115 27.5202 241.584 27.0823C241.067 26.6444 240.304 26.4254 239.295 26.4254H237.663ZM227.133 47.4661V18.3236H239.654C242.52 18.3236 244.889 18.682 246.76 19.3986C248.644 20.1152 250.051 21.2565 250.98 22.8224C251.909 24.3884 252.374 26.432 252.374 28.9535C252.374 31.3024 251.956 33.2067 251.119 34.6665C250.283 36.1263 249.016 37.1946 247.317 37.8714C245.632 38.5349 243.495 38.8667 240.908 38.8667H237.623V47.4661H227.133Z" fill="url(#paint0_linear_195_199)"/>
</g>
<path d="M34.0184 48.3908C20.6768 48.3908 9.82251 37.5366 9.82251 24.195C9.82251 10.8544 20.6768 0.00012207 34.0184 0.00012207C47.359 0.00012207 58.2132 10.8544 58.2132 24.195C58.2132 37.5376 47.359 48.3908 34.0184 48.3908ZM34.0184 8.54495C25.3888 8.54495 18.3663 15.5664 18.3663 24.196C18.3663 32.8267 25.3877 39.847 34.0184 39.847C42.648 39.847 49.6694 32.8256 49.6694 24.196C49.6694 15.5664 42.648 8.54495 34.0184 8.54495Z" fill="url(#paint1_linear_195_199)"/>
<path d="M54.5268 2.66553L35.047 22.1453L15.5673 2.66553C6.18058 8.95366 0 19.6549 0 31.8019C0 51.1576 15.6914 66.849 35.047 66.849C54.4027 66.849 70.0941 51.1576 70.0941 31.8019C70.0941 19.6538 63.9135 8.95263 54.5268 2.66553Z" fill="url(#paint2_linear_195_199)"/>
<path d="M21.4387 34.2966C28.3855 34.2966 34.017 28.6651 34.017 21.7182C34.017 14.7714 28.3855 9.13989 21.4387 9.13989C14.4919 9.13989 8.86035 14.7714 8.86035 21.7182C8.86035 28.6651 14.4919 34.2966 21.4387 34.2966Z" fill="white"/>
<path d="M21.4388 26.4787C24.068 26.4787 26.1994 24.3473 26.1994 21.7181C26.1994 19.0889 24.068 16.9575 21.4388 16.9575C18.8096 16.9575 16.6782 19.0889 16.6782 21.7181C16.6782 24.3473 18.8096 26.4787 21.4388 26.4787Z" fill="#CE181B"/>
<path d="M48.6555 34.2966C55.6023 34.2966 61.2338 28.6651 61.2338 21.7182C61.2338 14.7714 55.6023 9.13989 48.6555 9.13989C41.7086 9.13989 36.0771 14.7714 36.0771 21.7182C36.0771 28.6651 41.7086 34.2966 48.6555 34.2966Z" fill="white"/>
<path d="M48.6556 26.4787C51.2848 26.4787 53.4162 24.3473 53.4162 21.7181C53.4162 19.0889 51.2848 16.9575 48.6556 16.9575C46.0264 16.9575 43.895 19.0889 43.895 21.7181C43.895 24.3473 46.0264 26.4787 48.6556 26.4787Z" fill="#CE181B"/>
<path d="M35.0473 36.4692L28.7395 27.6803L35.0473 18.8904L41.3551 27.6803L35.0473 36.4692Z" fill="url(#paint3_linear_195_199)"/>
<defs>
<filter id="filter0_i_195_199" x="77.8574" y="18.3236" width="174.516" height="34.2384" filterUnits="userSpaceOnUse" color-interpolation-filters="sRGB">
<feFlood flood-opacity="0" result="BackgroundImageFix"/>
<feBlend mode="normal" in="SourceGraphic" in2="BackgroundImageFix" result="shape"/>
<feColorMatrix in="SourceAlpha" type="matrix" values="0 0 0 0 0 0 0 0 0 0 0 0 0 0 0 0 0 0 127 0" result="hardAlpha"/>
<feOffset dy="5.09594"/>
<feGaussianBlur stdDeviation="2.54797"/>
<feComposite in2="hardAlpha" operator="arithmetic" k2="-1" k3="1"/>
<feColorMatrix type="matrix" values="0 0 0 0 0 0 0 0 0 0 0 0 0 0 0 0 0 0 0.25 0"/>
<feBlend mode="normal" in2="shape" result="effect1_innerShadow_195_199"/>
</filter>
<linearGradient id="paint0_linear_195_199" x1="164.251" y1="3.20838" x2="164.251" y2="58.4045" gradientUnits="userSpaceOnUse">
<stop stop-color="#CE181B"/>
<stop offset="1" stop-color="#CE181B"/>
</linearGradient>
<linearGradient id="paint1_linear_195_199" x1="34.1432" y1="-8.51306" x2="34.1432" y2="48.3908" gradientUnits="userSpaceOnUse">
<stop stop-color="#F55558"/>
<stop offset="1" stop-color="#CE181B"/>
</linearGradient>
<linearGradient id="paint2_linear_195_199" x1="35.2286" y1="-8.62601" x2="35.2286" y2="66.849" gradientUnits="userSpaceOnUse">
<stop stop-color="#CE181B"/>
<stop offset="1" stop-color="#C10E11"/>
</linearGradient>
<linearGradient id="paint3_linear_195_199" x1="35.0473" y1="18.8904" x2="35.0473" y2="36.4692" gradientUnits="userSpaceOnUse">
<stop stop-color="#CE181B"/>
<stop offset="1" stop-color="#680C0E"/>
</linearGradient>
</defs>
</svg>
