<svg width="15" height="15" viewBox="0 0 15 15" fill="none" xmlns="http://www.w3.org/2000/svg">
<g clip-path="url(#clip0_156_11703)">
<path d="M14.5871 4.16333L13.2365 5.51392C13.0988 5.65161 12.8761 5.65161 12.7384 5.51392L9.48649 2.26196C9.34879 2.12427 9.34879 1.90161 9.48649 1.76392L10.8371 0.41333C11.3849 -0.134521 12.2756 -0.134521 12.8263 0.41333L14.5871 2.17407C15.1379 2.72192 15.1379 3.61255 14.5871 4.16333ZM8.32633 2.92407L0.632973 10.6174L0.011879 14.177C-0.0730819 14.6575 0.345863 15.0735 0.826332 14.9915L4.3859 14.3674L12.0793 6.67407C12.217 6.53638 12.217 6.31372 12.0793 6.17603L8.82731 2.92407C8.68668 2.78638 8.46403 2.78638 8.32633 2.92407ZM3.6359 9.95825C3.47477 9.79712 3.47477 9.53931 3.6359 9.37817L8.14762 4.86646C8.30875 4.70532 8.56657 4.70532 8.7277 4.86646C8.88883 5.02759 8.88883 5.2854 8.7277 5.44653L4.21598 9.95825C4.05485 10.1194 3.79704 10.1194 3.6359 9.95825ZM2.57829 12.4221H3.98454V13.4856L2.09489 13.8167L1.18375 12.9055L1.51481 11.0159H2.57829V12.4221Z" fill="white"/>
</g>
<defs>
<clipPath id="clip0_156_11703">
<rect width="15" height="15" fill="white"/>
</clipPath>
</defs>
</svg>
