<svg width="32" height="32" viewBox="0 0 32 32" fill="none" xmlns="http://www.w3.org/2000/svg">
<path d="M22.6667 3.27457C23.6547 3.46257 24.2414 3.67057 24.7467 4.29457C25.3827 5.0759 25.3494 5.9199 25.2814 7.6079C25.0414 13.6786 23.6814 21.3332 16.0014 21.3332C8.32137 21.3332 6.96004 13.6799 6.71737 7.6079C6.65071 5.9199 6.61737 5.07457 7.25071 4.29457C7.88537 3.51323 8.64404 3.38523 10.1627 3.12923C12.0923 2.81315 14.0448 2.6584 16 2.66657C16.9583 2.66834 17.8472 2.69857 18.6667 2.75723" stroke="#737791" stroke-width="1.5" stroke-linecap="round"/>
<path d="M25.3334 6.6665L26.5987 7.08784C27.9187 7.52784 28.5787 7.74784 28.9561 8.27184C29.3334 8.79584 29.3334 9.49317 29.3334 10.8825V10.9798C29.3334 12.1265 29.3334 12.7012 29.0574 13.1705C28.7814 13.6398 28.2787 13.9185 27.2761 14.4772L23.3334 16.6665M6.66675 6.6665L5.40141 7.08784C4.08141 7.52784 3.42141 7.74784 3.04408 8.27184C2.66675 8.79584 2.66675 9.49317 2.66675 10.8825V10.9798C2.66675 12.1265 2.66675 12.7012 2.94275 13.1705C3.21875 13.6398 3.72141 13.9185 4.72408 14.4772L8.66675 16.6665" stroke="#737791" stroke-width="1.5"/>
<path d="M16 22.6665V25.3332" stroke="#737791" stroke-width="1.5" stroke-linecap="round"/>
<path d="M20.6668 29.3333H11.3335L11.7868 27.072C11.8472 26.7699 12.0104 26.4979 12.2486 26.3025C12.4868 26.1071 12.7854 26.0002 13.0935 26H18.9068C19.215 26.0002 19.5135 26.1071 19.7517 26.3025C19.9899 26.4979 20.1531 26.7699 20.2135 27.072L20.6668 29.3333Z" stroke="#737791" stroke-width="1.5" stroke-linecap="round" stroke-linejoin="round"/>
<path d="M24 29.3333H8" stroke="#737791" stroke-width="1.5" stroke-linecap="round"/>
</svg>
