<svg width="26" height="26" viewBox="0 0 26 26" fill="none" xmlns="http://www.w3.org/2000/svg">
<path d="M4 0H12C13.0609 0 14.0783 0.421427 14.8284 1.17157C15.5786 1.92172 16 2.93913 16 4V9.33333H14.6667V4C14.6667 3.29276 14.3857 2.61448 13.8856 2.11438C13.3855 1.61428 12.7072 1.33333 12 1.33333H4C3.29276 1.33333 2.61448 1.61428 2.11438 2.11438C1.61428 2.61448 1.33333 3.29276 1.33333 4V21.3333C1.33333 22.0406 1.61428 22.7189 2.11438 23.219C2.61448 23.719 3.29276 24 4 24H12C12.7072 24 13.3855 23.719 13.8856 23.219C14.3857 22.7189 14.6667 22.0406 14.6667 21.3333V16H16V21.3333C16 22.3942 15.5786 23.4116 14.8284 24.1618C14.0783 24.9119 13.0609 25.3333 12 25.3333H4C2.93913 25.3333 1.92172 24.9119 1.17157 24.1618C0.421427 23.4116 0 22.3942 0 21.3333V4C0 2.93913 0.421427 1.92172 1.17157 1.17157C1.92172 0.421427 2.93913 0 4 0ZM8 12H23L18.6667 7.66667L19.5467 6.66667L25.5467 12.6667L19.5467 18.6667L18.6667 17.6667L23 13.3333H8V12Z" fill="#737791"/>
</svg>
