<svg width="32" height="32" viewBox="0 0 32 32" fill="none" xmlns="http://www.w3.org/2000/svg">
<path d="M21.9999 5.33325H10.6666C9.2521 5.33325 7.89554 5.89515 6.89535 6.89535C5.89515 7.89554 5.33325 9.2521 5.33325 10.6666V21.9999C5.33325 23.4144 5.89515 24.771 6.89535 25.7712C7.89554 26.7713 9.2521 27.3333 10.6666 27.3333H19.7906C20.4911 27.3333 21.1848 27.1953 21.832 26.9272C22.4793 26.659 23.0673 26.266 23.5626 25.7706L25.7706 23.5626C26.266 23.0673 26.659 22.4793 26.9272 21.832C27.1953 21.1848 27.3333 20.4911 27.3333 19.7906V10.6666C27.3333 9.2521 26.7713 7.89554 25.7712 6.89535C24.771 5.89515 23.4144 5.33325 21.9999 5.33325Z" stroke="#737791" stroke-width="1.5" stroke-linecap="round" stroke-linejoin="round"/>
<path d="M27.3332 18.6665H22.6665C21.6056 18.6665 20.5882 19.0879 19.8381 19.8381C19.0879 20.5882 18.6665 21.6056 18.6665 22.6665V27.3332M10.6665 10.6665H20.6665M10.6665 15.9998H17.3332" stroke="#737791" stroke-width="1.5" stroke-linecap="round" stroke-linejoin="round"/>
</svg>
