<svg width="71" height="67" viewBox="0 0 71 67" fill="none" xmlns="http://www.w3.org/2000/svg">
<path d="M34.0184 48.3907C20.6768 48.3907 9.82251 37.5364 9.82251 24.1948C9.82251 10.8543 20.6768 0 34.0184 0C47.359 0 58.2132 10.8543 58.2132 24.1948C58.2132 37.5375 47.359 48.3907 34.0184 48.3907ZM34.0184 8.54483C25.3888 8.54483 18.3663 15.5662 18.3663 24.1959C18.3663 32.8265 25.3877 39.8469 34.0184 39.8469C42.648 39.8469 49.6694 32.8255 49.6694 24.1959C49.6694 15.5662 42.648 8.54483 34.0184 8.54483Z" fill="url(#paint0_linear_51_1894)"/>
<path d="M54.5268 2.66553L35.047 22.1453L15.5673 2.66553C6.18058 8.95366 0 19.6549 0 31.8019C0 51.1576 15.6914 66.849 35.047 66.849C54.4027 66.849 70.0941 51.1576 70.0941 31.8019C70.0941 19.6538 63.9135 8.95263 54.5268 2.66553Z" fill="url(#paint1_linear_51_1894)"/>
<path d="M21.4387 34.2966C28.3855 34.2966 34.017 28.6651 34.017 21.7182C34.017 14.7714 28.3855 9.13989 21.4387 9.13989C14.4919 9.13989 8.86035 14.7714 8.86035 21.7182C8.86035 28.6651 14.4919 34.2966 21.4387 34.2966Z" fill="white"/>
<path d="M21.4388 26.4787C24.068 26.4787 26.1994 24.3473 26.1994 21.7181C26.1994 19.0889 24.068 16.9575 21.4388 16.9575C18.8096 16.9575 16.6782 19.0889 16.6782 21.7181C16.6782 24.3473 18.8096 26.4787 21.4388 26.4787Z" fill="#CE181B"/>
<path d="M48.6555 34.2966C55.6023 34.2966 61.2338 28.6651 61.2338 21.7182C61.2338 14.7714 55.6023 9.13989 48.6555 9.13989C41.7086 9.13989 36.0771 14.7714 36.0771 21.7182C36.0771 28.6651 41.7086 34.2966 48.6555 34.2966Z" fill="white"/>
<path d="M48.6556 26.4787C51.2848 26.4787 53.4162 24.3473 53.4162 21.7181C53.4162 19.0889 51.2848 16.9575 48.6556 16.9575C46.0264 16.9575 43.895 19.0889 43.895 21.7181C43.895 24.3473 46.0264 26.4787 48.6556 26.4787Z" fill="#CE181B"/>
<path d="M35.0473 36.4692L28.7395 27.6803L35.0473 18.8904L41.3551 27.6803L35.0473 36.4692Z" fill="url(#paint2_linear_51_1894)"/>
<defs>
<linearGradient id="paint0_linear_51_1894" x1="34.1432" y1="-8.51318" x2="34.1432" y2="48.3907" gradientUnits="userSpaceOnUse">
<stop stop-color="#F55558"/>
<stop offset="1" stop-color="#CE181B"/>
</linearGradient>
<linearGradient id="paint1_linear_51_1894" x1="35.2286" y1="-8.62601" x2="35.2286" y2="66.849" gradientUnits="userSpaceOnUse">
<stop stop-color="#CE181B"/>
<stop offset="1" stop-color="#C10E11"/>
</linearGradient>
<linearGradient id="paint2_linear_51_1894" x1="35.0473" y1="18.8904" x2="35.0473" y2="36.4692" gradientUnits="userSpaceOnUse">
<stop stop-color="#CE181B"/>
<stop offset="1" stop-color="#680C0E"/>
</linearGradient>
</defs>
</svg>
