<svg width="32" height="32" viewBox="0 0 32 32" fill="none" xmlns="http://www.w3.org/2000/svg">
<path d="M21.9999 5.3335H10.6666C9.2521 5.3335 7.89554 5.8954 6.89535 6.89559C5.89515 7.89579 5.33325 9.25234 5.33325 10.6668V22.0002C5.33325 23.4147 5.89515 24.7712 6.89535 25.7714C7.89554 26.7716 9.2521 27.3335 10.6666 27.3335H19.7906C20.4911 27.3335 21.1848 27.1955 21.832 26.9274C22.4793 26.6593 23.0673 26.2663 23.5626 25.7708L25.7706 23.5628C26.266 23.0675 26.659 22.4795 26.9272 21.8323C27.1953 21.1851 27.3333 20.4914 27.3333 19.7908V10.6668C27.3333 9.25234 26.7713 7.89579 25.7712 6.89559C24.771 5.8954 23.4144 5.3335 21.9999 5.3335Z" stroke="#737791" stroke-width="1.5" stroke-linecap="round" stroke-linejoin="round"/>
<path d="M27.3332 18.667H22.6665C21.6056 18.667 20.5882 19.0884 19.8381 19.8386C19.0879 20.5887 18.6665 21.6061 18.6665 22.667V27.3337M10.6665 10.667H20.6665M10.6665 16.0003H17.3332" stroke="#737791" stroke-width="1.5" stroke-linecap="round" stroke-linejoin="round"/>
</svg>
